<svg width="270" height="56" viewBox="0 0 270 56" fill="none" xmlns="http://www.w3.org/2000/svg">
<path d="M93.75 44H86.9531V8H93.75V44ZM106.5 44H99.7031V18.6406H106.5V44ZM99.3047 12.0781C99.3047 11.0625 99.6406 10.2266 100.312 9.57031C101 8.91406 101.93 8.58594 103.102 8.58594C104.258 8.58594 105.18 8.91406 105.867 9.57031C106.555 10.2266 106.898 11.0625 106.898 12.0781C106.898 13.1094 106.547 13.9531 105.844 14.6094C105.156 15.2656 104.242 15.5938 103.102 15.5938C101.961 15.5938 101.039 15.2656 100.336 14.6094C99.6484 13.9531 99.3047 13.1094 99.3047 12.0781ZM120.211 12.4062V18.6406H124.547V23.6094H120.211V36.2656C120.211 37.2031 120.391 37.875 120.75 38.2812C121.109 38.6875 121.797 38.8906 122.812 38.8906C123.562 38.8906 124.227 38.8359 124.805 38.7266V43.8594C123.477 44.2656 122.109 44.4688 120.703 44.4688C115.953 44.4688 113.531 42.0703 113.438 37.2734V23.6094H109.734V18.6406H113.438V12.4062H120.211ZM139.992 44.4688C136.273 44.4688 133.242 43.3281 130.898 41.0469C128.57 38.7656 127.406 35.7266 127.406 31.9297V31.2734C127.406 28.7266 127.898 26.4531 128.883 24.4531C129.867 22.4375 131.258 20.8906 133.055 19.8125C134.867 18.7188 136.93 18.1719 139.242 18.1719C142.711 18.1719 145.438 19.2656 147.422 21.4531C149.422 23.6406 150.422 26.7422 150.422 30.7578V33.5234H134.273C134.492 35.1797 135.148 36.5078 136.242 37.5078C137.352 38.5078 138.75 39.0078 140.438 39.0078C143.047 39.0078 145.086 38.0625 146.555 36.1719L149.883 39.8984C148.867 41.3359 147.492 42.4609 145.758 43.2734C144.023 44.0703 142.102 44.4688 139.992 44.4688ZM139.219 23.6562C137.875 23.6562 136.781 24.1094 135.938 25.0156C135.109 25.9219 134.578 27.2188 134.344 28.9062H143.766V28.3672C143.734 26.8672 143.328 25.7109 142.547 24.8984C141.766 24.0703 140.656 23.6562 139.219 23.6562ZM164.836 39.0078C166.086 39.0078 167.102 38.6641 167.883 37.9766C168.664 37.2891 169.07 36.375 169.102 35.2344H175.453C175.438 36.9531 174.969 38.5312 174.047 39.9688C173.125 41.3906 171.859 42.5 170.25 43.2969C168.656 44.0781 166.891 44.4688 164.953 44.4688C161.328 44.4688 158.469 43.3203 156.375 41.0234C154.281 38.7109 153.234 35.5234 153.234 31.4609V31.0156C153.234 27.1094 154.273 23.9922 156.352 21.6641C158.43 19.3359 161.281 18.1719 164.906 18.1719C168.078 18.1719 170.617 19.0781 172.523 20.8906C174.445 22.6875 175.422 25.0859 175.453 28.0859H169.102C169.07 26.7734 168.664 25.7109 167.883 24.8984C167.102 24.0703 166.07 23.6562 164.789 23.6562C163.211 23.6562 162.016 24.2344 161.203 25.3906C160.406 26.5312 160.008 28.3906 160.008 30.9688V31.6719C160.008 34.2812 160.406 36.1562 161.203 37.2969C162 38.4375 163.211 39.0078 164.836 39.0078ZM178.266 31.0859C178.266 28.5703 178.75 26.3281 179.719 24.3594C180.688 22.3906 182.078 20.8672 183.891 19.7891C185.719 18.7109 187.836 18.1719 190.242 18.1719C193.664 18.1719 196.453 19.2188 198.609 21.3125C200.781 23.4062 201.992 26.25 202.242 29.8438L202.289 31.5781C202.289 35.4688 201.203 38.5938 199.031 40.9531C196.859 43.2969 193.945 44.4688 190.289 44.4688C186.633 44.4688 183.711 43.2969 181.523 40.9531C179.352 38.6094 178.266 35.4219 178.266 31.3906V31.0859ZM185.039 31.5781C185.039 33.9844 185.492 35.8281 186.398 37.1094C187.305 38.375 188.602 39.0078 190.289 39.0078C191.93 39.0078 193.211 38.3828 194.133 37.1328C195.055 35.8672 195.516 33.8516 195.516 31.0859C195.516 28.7266 195.055 26.8984 194.133 25.6016C193.211 24.3047 191.914 23.6562 190.242 23.6562C188.586 23.6562 187.305 24.3047 186.398 25.6016C185.492 26.8828 185.039 28.875 185.039 31.5781ZM205.406 31.1328C205.406 27.1797 206.289 24.0312 208.055 21.6875C209.836 19.3438 212.266 18.1719 215.344 18.1719C217.812 18.1719 219.852 19.0938 221.461 20.9375V8H228.258V44H222.141L221.812 41.3047C220.125 43.4141 217.953 44.4688 215.297 44.4688C212.312 44.4688 209.914 43.2969 208.102 40.9531C206.305 38.5938 205.406 35.3203 205.406 31.1328ZM212.18 31.625C212.18 34 212.594 35.8203 213.422 37.0859C214.25 38.3516 215.453 38.9844 217.031 38.9844C219.125 38.9844 220.602 38.1016 221.461 36.3359V26.3281C220.617 24.5625 219.156 23.6797 217.078 23.6797C213.812 23.6797 212.18 26.3281 212.18 31.625ZM245.18 44.4688C241.461 44.4688 238.43 43.3281 236.086 41.0469C233.758 38.7656 232.594 35.7266 232.594 31.9297V31.2734C232.594 28.7266 233.086 26.4531 234.07 24.4531C235.055 22.4375 236.445 20.8906 238.242 19.8125C240.055 18.7188 242.117 18.1719 244.43 18.1719C247.898 18.1719 250.625 19.2656 252.609 21.4531C254.609 23.6406 255.609 26.7422 255.609 30.7578V33.5234H239.461C239.68 35.1797 240.336 36.5078 241.43 37.5078C242.539 38.5078 243.938 39.0078 245.625 39.0078C248.234 39.0078 250.273 38.0625 251.742 36.1719L255.07 39.8984C254.055 41.3359 252.68 42.4609 250.945 43.2734C249.211 44.0703 247.289 44.4688 245.18 44.4688ZM244.406 23.6562C243.062 23.6562 241.969 24.1094 241.125 25.0156C240.297 25.9219 239.766 27.2188 239.531 28.9062H248.953V28.3672C248.922 26.8672 248.516 25.7109 247.734 24.8984C246.953 24.0703 245.844 23.6562 244.406 23.6562Z" fill="#059FC9"/>
<path d="M59.5833 46H5.41667C2.42509 46 0 43.9853 0 41.5V14.5C0 12.0147 2.42509 10 5.41667 10H59.5833C62.5749 10 65 12.0147 65 14.5V41.5C65 43.9853 62.5749 46 59.5833 46ZM14.4444 20.875V17.125C14.4444 16.5037 13.8381 16 13.0903 16H8.57639C7.82855 16 7.22222 16.5037 7.22222 17.125V20.875C7.22222 21.4963 7.82855 22 8.57639 22H13.0903C13.8381 22 14.4444 21.4963 14.4444 20.875ZM25.2778 20.875V17.125C25.2778 16.5037 24.6714 16 23.9236 16H19.4097C18.6619 16 18.0556 16.5037 18.0556 17.125V20.875C18.0556 21.4963 18.6619 22 19.4097 22H23.9236C24.6714 22 25.2778 21.4963 25.2778 20.875ZM36.1111 20.875V17.125C36.1111 16.5037 35.5048 16 34.7569 16H30.2431C29.4952 16 28.8889 16.5037 28.8889 17.125V20.875C28.8889 21.4963 29.4952 22 30.2431 22H34.7569C35.5048 22 36.1111 21.4963 36.1111 20.875ZM46.9444 20.875V17.125C46.9444 16.5037 46.3381 16 45.5903 16H41.0764C40.3286 16 39.7222 16.5037 39.7222 17.125V20.875C39.7222 21.4963 40.3286 22 41.0764 22H45.5903C46.3381 22 46.9444 21.4963 46.9444 20.875ZM57.7778 20.875V17.125C57.7778 16.5037 57.1715 16 56.4236 16H51.9097C51.1619 16 50.5556 16.5037 50.5556 17.125V20.875C50.5556 21.4963 51.1619 22 51.9097 22H56.4236C57.1715 22 57.7778 21.4963 57.7778 20.875ZM19.8611 29.875V26.125C19.8611 25.5037 19.2548 25 18.5069 25H13.9931C13.2452 25 12.6389 25.5037 12.6389 26.125V29.875C12.6389 30.4963 13.2452 31 13.9931 31H18.5069C19.2548 31 19.8611 30.4963 19.8611 29.875ZM30.6944 29.875V26.125C30.6944 25.5037 30.0881 25 29.3403 25H24.8264C24.0786 25 23.4722 25.5037 23.4722 26.125V29.875C23.4722 30.4963 24.0786 31 24.8264 31H29.3403C30.0881 31 30.6944 30.4963 30.6944 29.875ZM41.5278 29.875V26.125C41.5278 25.5037 40.9215 25 40.1736 25H35.6597C34.9119 25 34.3056 25.5037 34.3056 26.125V29.875C34.3056 30.4963 34.9119 31 35.6597 31H40.1736C40.9215 31 41.5278 30.4963 41.5278 29.875ZM52.3611 29.875V26.125C52.3611 25.5037 51.7548 25 51.0069 25H46.4931C45.7452 25 45.1389 25.5037 45.1389 26.125V29.875C45.1389 30.4963 45.7452 31 46.4931 31H51.0069C51.7548 31 52.3611 30.4963 52.3611 29.875ZM14.4444 38.875V35.125C14.4444 34.5037 13.8381 34 13.0903 34H8.57639C7.82855 34 7.22222 34.5037 7.22222 35.125V38.875C7.22222 39.4963 7.82855 40 8.57639 40H13.0903C13.8381 40 14.4444 39.4963 14.4444 38.875ZM46.9444 38.875V35.125C46.9444 34.5037 46.3381 34 45.5903 34H19.4097C18.6619 34 18.0556 34.5037 18.0556 35.125V38.875C18.0556 39.4963 18.6619 40 19.4097 40H45.5903C46.3381 40 46.9444 39.4963 46.9444 38.875ZM57.7778 38.875V35.125C57.7778 34.5037 57.1715 34 56.4236 34H51.9097C51.1619 34 50.5556 34.5037 50.5556 35.125V38.875C50.5556 39.4963 51.1619 40 51.9097 40H56.4236C57.1715 40 57.7778 39.4963 57.7778 38.875Z" fill="#059FC9"/>
<path d="M59.5833 46H5.41667C2.42509 46 0 43.9853 0 41.5V14.5C0 12.0147 2.42509 10 5.41667 10H59.5833C62.5749 10 65 12.0147 65 14.5V41.5C65 43.9853 62.5749 46 59.5833 46ZM14.4444 20.875V17.125C14.4444 16.5037 13.8381 16 13.0903 16H8.57639C7.82855 16 7.22222 16.5037 7.22222 17.125V20.875C7.22222 21.4963 7.82855 22 8.57639 22H13.0903C13.8381 22 14.4444 21.4963 14.4444 20.875ZM25.2778 20.875V17.125C25.2778 16.5037 24.6714 16 23.9236 16H19.4097C18.6619 16 18.0556 16.5037 18.0556 17.125V20.875C18.0556 21.4963 18.6619 22 19.4097 22H23.9236C24.6714 22 25.2778 21.4963 25.2778 20.875ZM36.1111 20.875V17.125C36.1111 16.5037 35.5048 16 34.7569 16H30.2431C29.4952 16 28.8889 16.5037 28.8889 17.125V20.875C28.8889 21.4963 29.4952 22 30.2431 22H34.7569C35.5048 22 36.1111 21.4963 36.1111 20.875ZM46.9444 20.875V17.125C46.9444 16.5037 46.3381 16 45.5903 16H41.0764C40.3286 16 39.7222 16.5037 39.7222 17.125V20.875C39.7222 21.4963 40.3286 22 41.0764 22H45.5903C46.3381 22 46.9444 21.4963 46.9444 20.875ZM57.7778 20.875V17.125C57.7778 16.5037 57.1715 16 56.4236 16H51.9097C51.1619 16 50.5556 16.5037 50.5556 17.125V20.875C50.5556 21.4963 51.1619 22 51.9097 22H56.4236C57.1715 22 57.7778 21.4963 57.7778 20.875ZM19.8611 29.875V26.125C19.8611 25.5037 19.2548 25 18.5069 25H13.9931C13.2452 25 12.6389 25.5037 12.6389 26.125V29.875C12.6389 30.4963 13.2452 31 13.9931 31H18.5069C19.2548 31 19.8611 30.4963 19.8611 29.875ZM30.6944 29.875V26.125C30.6944 25.5037 30.0881 25 29.3403 25H24.8264C24.0786 25 23.4722 25.5037 23.4722 26.125V29.875C23.4722 30.4963 24.0786 31 24.8264 31H29.3403C30.0881 31 30.6944 30.4963 30.6944 29.875ZM41.5278 29.875V26.125C41.5278 25.5037 40.9215 25 40.1736 25H35.6597C34.9119 25 34.3056 25.5037 34.3056 26.125V29.875C34.3056 30.4963 34.9119 31 35.6597 31H40.1736C40.9215 31 41.5278 30.4963 41.5278 29.875ZM52.3611 29.875V26.125C52.3611 25.5037 51.7548 25 51.0069 25H46.4931C45.7452 25 45.1389 25.5037 45.1389 26.125V29.875C45.1389 30.4963 45.7452 31 46.4931 31H51.0069C51.7548 31 52.3611 30.4963 52.3611 29.875ZM14.4444 38.875V35.125C14.4444 34.5037 13.8381 34 13.0903 34H8.57639C7.82855 34 7.22222 34.5037 7.22222 35.125V38.875C7.22222 39.4963 7.82855 40 8.57639 40H13.0903C13.8381 40 14.4444 39.4963 14.4444 38.875ZM46.9444 38.875V35.125C46.9444 34.5037 46.3381 34 45.5903 34H19.4097C18.6619 34 18.0556 34.5037 18.0556 35.125V38.875C18.0556 39.4963 18.6619 40 19.4097 40H45.5903C46.3381 40 46.9444 39.4963 46.9444 38.875ZM57.7778 38.875V35.125C57.7778 34.5037 57.1715 34 56.4236 34H51.9097C51.1619 34 50.5556 34.5037 50.5556 35.125V38.875C50.5556 39.4963 51.1619 40 51.9097 40H56.4236C57.1715 40 57.7778 39.4963 57.7778 38.875Z" fill="url(#paint0_linear)"/>
<defs>
<linearGradient id="paint0_linear" x1="4" y1="13" x2="60" y2="43" gradientUnits="userSpaceOnUse">
<stop stop-color="white" stop-opacity="0.56"/>
<stop offset="1" stop-color="white" stop-opacity="0"/>
</linearGradient>
</defs>
</svg>
