<svg width="65" height="36" viewBox="0 0 65 36" fill="none" xmlns="http://www.w3.org/2000/svg">
<path d="M59.5833 36H5.41667C2.42509 36 0 33.9853 0 31.5V4.5C0 2.01469 2.42509 0 5.41667 0H59.5833C62.5749 0 65 2.01469 65 4.5V31.5C65 33.9853 62.5749 36 59.5833 36ZM14.4444 10.875V7.125C14.4444 6.50372 13.8381 6 13.0903 6H8.57639C7.82855 6 7.22222 6.50372 7.22222 7.125V10.875C7.22222 11.4963 7.82855 12 8.57639 12H13.0903C13.8381 12 14.4444 11.4963 14.4444 10.875ZM25.2778 10.875V7.125C25.2778 6.50372 24.6714 6 23.9236 6H19.4097C18.6619 6 18.0556 6.50372 18.0556 7.125V10.875C18.0556 11.4963 18.6619 12 19.4097 12H23.9236C24.6714 12 25.2778 11.4963 25.2778 10.875ZM36.1111 10.875V7.125C36.1111 6.50372 35.5048 6 34.7569 6H30.2431C29.4952 6 28.8889 6.50372 28.8889 7.125V10.875C28.8889 11.4963 29.4952 12 30.2431 12H34.7569C35.5048 12 36.1111 11.4963 36.1111 10.875ZM46.9444 10.875V7.125C46.9444 6.50372 46.3381 6 45.5903 6H41.0764C40.3286 6 39.7222 6.50372 39.7222 7.125V10.875C39.7222 11.4963 40.3286 12 41.0764 12H45.5903C46.3381 12 46.9444 11.4963 46.9444 10.875ZM57.7778 10.875V7.125C57.7778 6.50372 57.1715 6 56.4236 6H51.9097C51.1619 6 50.5556 6.50372 50.5556 7.125V10.875C50.5556 11.4963 51.1619 12 51.9097 12H56.4236C57.1715 12 57.7778 11.4963 57.7778 10.875ZM19.8611 19.875V16.125C19.8611 15.5037 19.2548 15 18.5069 15H13.9931C13.2452 15 12.6389 15.5037 12.6389 16.125V19.875C12.6389 20.4963 13.2452 21 13.9931 21H18.5069C19.2548 21 19.8611 20.4963 19.8611 19.875ZM30.6944 19.875V16.125C30.6944 15.5037 30.0881 15 29.3403 15H24.8264C24.0786 15 23.4722 15.5037 23.4722 16.125V19.875C23.4722 20.4963 24.0786 21 24.8264 21H29.3403C30.0881 21 30.6944 20.4963 30.6944 19.875ZM41.5278 19.875V16.125C41.5278 15.5037 40.9215 15 40.1736 15H35.6597C34.9119 15 34.3056 15.5037 34.3056 16.125V19.875C34.3056 20.4963 34.9119 21 35.6597 21H40.1736C40.9215 21 41.5278 20.4963 41.5278 19.875ZM52.3611 19.875V16.125C52.3611 15.5037 51.7548 15 51.0069 15H46.4931C45.7452 15 45.1389 15.5037 45.1389 16.125V19.875C45.1389 20.4963 45.7452 21 46.4931 21H51.0069C51.7548 21 52.3611 20.4963 52.3611 19.875ZM14.4444 28.875V25.125C14.4444 24.5037 13.8381 24 13.0903 24H8.57639C7.82855 24 7.22222 24.5037 7.22222 25.125V28.875C7.22222 29.4963 7.82855 30 8.57639 30H13.0903C13.8381 30 14.4444 29.4963 14.4444 28.875ZM46.9444 28.875V25.125C46.9444 24.5037 46.3381 24 45.5903 24H19.4097C18.6619 24 18.0556 24.5037 18.0556 25.125V28.875C18.0556 29.4963 18.6619 30 19.4097 30H45.5903C46.3381 30 46.9444 29.4963 46.9444 28.875ZM57.7778 28.875V25.125C57.7778 24.5037 57.1715 24 56.4236 24H51.9097C51.1619 24 50.5556 24.5037 50.5556 25.125V28.875C50.5556 29.4963 51.1619 30 51.9097 30H56.4236C57.1715 30 57.7778 29.4963 57.7778 28.875Z" fill="#059FC9"/>
<path d="M59.5833 36H5.41667C2.42509 36 0 33.9853 0 31.5V4.5C0 2.01469 2.42509 0 5.41667 0H59.5833C62.5749 0 65 2.01469 65 4.5V31.5C65 33.9853 62.5749 36 59.5833 36ZM14.4444 10.875V7.125C14.4444 6.50372 13.8381 6 13.0903 6H8.57639C7.82855 6 7.22222 6.50372 7.22222 7.125V10.875C7.22222 11.4963 7.82855 12 8.57639 12H13.0903C13.8381 12 14.4444 11.4963 14.4444 10.875ZM25.2778 10.875V7.125C25.2778 6.50372 24.6714 6 23.9236 6H19.4097C18.6619 6 18.0556 6.50372 18.0556 7.125V10.875C18.0556 11.4963 18.6619 12 19.4097 12H23.9236C24.6714 12 25.2778 11.4963 25.2778 10.875ZM36.1111 10.875V7.125C36.1111 6.50372 35.5048 6 34.7569 6H30.2431C29.4952 6 28.8889 6.50372 28.8889 7.125V10.875C28.8889 11.4963 29.4952 12 30.2431 12H34.7569C35.5048 12 36.1111 11.4963 36.1111 10.875ZM46.9444 10.875V7.125C46.9444 6.50372 46.3381 6 45.5903 6H41.0764C40.3286 6 39.7222 6.50372 39.7222 7.125V10.875C39.7222 11.4963 40.3286 12 41.0764 12H45.5903C46.3381 12 46.9444 11.4963 46.9444 10.875ZM57.7778 10.875V7.125C57.7778 6.50372 57.1715 6 56.4236 6H51.9097C51.1619 6 50.5556 6.50372 50.5556 7.125V10.875C50.5556 11.4963 51.1619 12 51.9097 12H56.4236C57.1715 12 57.7778 11.4963 57.7778 10.875ZM19.8611 19.875V16.125C19.8611 15.5037 19.2548 15 18.5069 15H13.9931C13.2452 15 12.6389 15.5037 12.6389 16.125V19.875C12.6389 20.4963 13.2452 21 13.9931 21H18.5069C19.2548 21 19.8611 20.4963 19.8611 19.875ZM30.6944 19.875V16.125C30.6944 15.5037 30.0881 15 29.3403 15H24.8264C24.0786 15 23.4722 15.5037 23.4722 16.125V19.875C23.4722 20.4963 24.0786 21 24.8264 21H29.3403C30.0881 21 30.6944 20.4963 30.6944 19.875ZM41.5278 19.875V16.125C41.5278 15.5037 40.9215 15 40.1736 15H35.6597C34.9119 15 34.3056 15.5037 34.3056 16.125V19.875C34.3056 20.4963 34.9119 21 35.6597 21H40.1736C40.9215 21 41.5278 20.4963 41.5278 19.875ZM52.3611 19.875V16.125C52.3611 15.5037 51.7548 15 51.0069 15H46.4931C45.7452 15 45.1389 15.5037 45.1389 16.125V19.875C45.1389 20.4963 45.7452 21 46.4931 21H51.0069C51.7548 21 52.3611 20.4963 52.3611 19.875ZM14.4444 28.875V25.125C14.4444 24.5037 13.8381 24 13.0903 24H8.57639C7.82855 24 7.22222 24.5037 7.22222 25.125V28.875C7.22222 29.4963 7.82855 30 8.57639 30H13.0903C13.8381 30 14.4444 29.4963 14.4444 28.875ZM46.9444 28.875V25.125C46.9444 24.5037 46.3381 24 45.5903 24H19.4097C18.6619 24 18.0556 24.5037 18.0556 25.125V28.875C18.0556 29.4963 18.6619 30 19.4097 30H45.5903C46.3381 30 46.9444 29.4963 46.9444 28.875ZM57.7778 28.875V25.125C57.7778 24.5037 57.1715 24 56.4236 24H51.9097C51.1619 24 50.5556 24.5037 50.5556 25.125V28.875C50.5556 29.4963 51.1619 30 51.9097 30H56.4236C57.1715 30 57.7778 29.4963 57.7778 28.875Z" fill="url(#paint0_linear)"/>
<defs>
<linearGradient id="paint0_linear" x1="4" y1="3" x2="60" y2="33" gradientUnits="userSpaceOnUse">
<stop stop-color="white" stop-opacity="0.56"/>
<stop offset="1" stop-color="white" stop-opacity="0"/>
</linearGradient>
</defs>
</svg>
